<svg xmlns="http://www.w3.org/2000/svg" xmlns:xlink="http://www.w3.org/1999/xlink" width="1080" zoomAndPan="magnify" viewBox="0 0 810 809.999993" height="1080" preserveAspectRatio="xMidYMid meet" version="1.0"><defs><clipPath id="42b586776d"><path d="M 34.113281 34.113281 L 775.863281 34.113281 L 775.863281 775.863281 L 34.113281 775.863281 Z M 34.113281 34.113281 " clip-rule="nonzero"/></clipPath></defs><g clip-path="url(#42b586776d)"><path fill="#00142e" d="M 58.839844 553.339844 L 751.140625 553.339844 L 751.140625 578.066406 L 58.839844 578.066406 Z M 108.289062 108.289062 L 701.691406 108.289062 L 701.691406 528.613281 L 108.289062 528.613281 Z M 58.839844 58.839844 L 751.140625 58.839844 L 751.140625 83.566406 L 58.839844 83.566406 Z M 46.476562 602.789062 L 206.464844 602.789062 L 86.21875 755.871094 L 105.632812 771.132812 L 237.902344 602.789062 L 392.628906 602.789062 L 392.628906 775.863281 L 417.351562 775.863281 L 417.351562 602.789062 L 572.078125 602.789062 L 704.34375 771.132812 L 723.757812 755.871094 L 603.515625 602.789062 L 763.503906 602.789062 C 770.3125 602.789062 775.863281 597.234375 775.863281 590.425781 L 775.863281 540.976562 C 775.863281 534.167969 770.3125 528.613281 763.503906 528.613281 L 726.414062 528.613281 L 726.414062 108.289062 L 763.503906 108.289062 C 770.3125 108.289062 775.863281 102.734375 775.863281 95.925781 L 775.863281 46.476562 C 775.863281 39.667969 770.3125 34.113281 763.503906 34.113281 L 46.476562 34.113281 C 39.667969 34.113281 34.113281 39.667969 34.113281 46.476562 L 34.113281 95.925781 C 34.113281 102.734375 39.667969 108.289062 46.476562 108.289062 L 83.566406 108.289062 L 83.566406 528.613281 L 46.476562 528.613281 C 39.667969 528.613281 34.113281 534.167969 34.113281 540.976562 L 34.113281 590.425781 C 34.113281 597.234375 39.667969 602.789062 46.476562 602.789062 " fill-opacity="1" fill-rule="nonzero"/></g><path fill="#00142e" d="M 194.828125 133.015625 L 145.378906 133.015625 L 145.378906 157.738281 L 194.828125 157.738281 L 194.828125 133.015625 " fill-opacity="1" fill-rule="nonzero"/><path fill="#00142e" d="M 194.828125 182.464844 L 145.378906 182.464844 L 145.378906 207.191406 L 194.828125 207.191406 L 194.828125 182.464844 " fill-opacity="1" fill-rule="nonzero"/><path fill="#00142e" d="M 652.238281 145.378906 C 638.574219 145.378906 627.515625 156.4375 627.515625 170.101562 C 627.515625 172.273438 627.902344 174.398438 628.433594 176.429688 L 572.027344 232.832031 C 570 232.300781 567.875 231.914062 565.703125 231.914062 C 563.527344 231.914062 561.402344 232.300781 559.375 232.832031 L 552.421875 225.878906 C 552.953125 223.851562 553.339844 221.726562 553.339844 219.550781 C 553.339844 205.886719 542.28125 194.828125 528.613281 194.828125 C 514.949219 194.828125 503.890625 205.886719 503.890625 219.550781 C 503.890625 221.4375 504.132812 223.222656 504.515625 224.960938 L 375.144531 344.382812 C 372.828125 343.660156 370.460938 343.175781 367.902344 343.175781 C 365.730469 343.175781 363.605469 343.5625 361.574219 344.09375 L 342.257812 324.777344 C 342.789062 322.75 343.175781 320.625 343.175781 318.453125 C 343.175781 304.785156 332.117188 293.726562 318.453125 293.726562 C 304.785156 293.726562 293.726562 304.785156 293.726562 318.453125 C 293.726562 320.238281 293.96875 321.976562 294.304688 323.667969 L 176.621094 430.679688 C 174.496094 430.101562 172.371094 429.714844 170.101562 429.714844 C 156.4375 429.714844 145.378906 440.773438 145.378906 454.441406 C 145.378906 468.105469 156.4375 479.164062 170.101562 479.164062 C 183.769531 479.164062 194.828125 468.105469 194.828125 454.441406 C 194.828125 452.316406 194.488281 450.285156 193.957031 448.308594 L 311.015625 341.921875 C 313.382812 342.644531 315.84375 343.175781 318.453125 343.175781 C 320.625 343.175781 322.75 342.789062 324.777344 342.257812 L 344.09375 361.574219 C 343.5625 363.605469 343.175781 365.730469 343.175781 367.902344 C 343.175781 381.570312 354.234375 392.628906 367.902344 392.628906 C 381.570312 392.628906 392.628906 381.570312 392.628906 367.902344 C 392.628906 366.019531 392.386719 364.230469 392 362.492188 L 521.371094 243.070312 C 523.6875 243.792969 526.054688 244.277344 528.613281 244.277344 C 530.789062 244.277344 532.914062 243.890625 534.941406 243.359375 L 541.894531 250.3125 C 541.363281 252.34375 540.976562 254.464844 540.976562 256.640625 C 540.976562 270.304688 552.035156 281.363281 565.703125 281.363281 C 579.367188 281.363281 590.425781 270.304688 590.425781 256.640625 C 590.425781 254.464844 590.039062 252.34375 589.507812 250.3125 L 645.914062 193.910156 C 647.941406 194.441406 650.066406 194.828125 652.238281 194.828125 C 665.90625 194.828125 676.964844 183.769531 676.964844 170.101562 C 676.964844 156.4375 665.90625 145.378906 652.238281 145.378906 " fill-opacity="1" fill-rule="nonzero"/><path fill="#00142e" d="M 516.253906 479.164062 L 540.976562 479.164062 L 540.976562 429.714844 L 516.253906 429.714844 L 516.253906 479.164062 " fill-opacity="1" fill-rule="nonzero"/><path fill="#00142e" d="M 565.703125 479.164062 L 590.425781 479.164062 L 590.425781 417.351562 L 565.703125 417.351562 L 565.703125 479.164062 " fill-opacity="1" fill-rule="nonzero"/><path fill="#00142e" d="M 615.152344 479.164062 L 639.878906 479.164062 L 639.878906 442.078125 L 615.152344 442.078125 L 615.152344 479.164062 " fill-opacity="1" fill-rule="nonzero"/><path fill="#00142e" d="M 194.828125 231.914062 L 145.378906 231.914062 L 145.378906 256.640625 L 194.828125 256.640625 L 194.828125 231.914062 " fill-opacity="1" fill-rule="nonzero"/></svg>