<svg xmlns="http://www.w3.org/2000/svg" xmlns:xlink="http://www.w3.org/1999/xlink" width="1080" zoomAndPan="magnify" viewBox="0 0 810 809.999993" height="1080" preserveAspectRatio="xMidYMid meet" version="1.0"><path fill="#00142e" d="M 405 540 C 479.4375 540 540 479.4375 540 405 C 540 330.5625 479.4375 270 405 270 C 330.5625 270 270 330.5625 270 405 C 270 479.4375 330.5625 540 405 540 Z M 405 297 C 464.546875 297 513 345.453125 513 405 C 513 464.546875 464.546875 513 405 513 C 345.453125 513 297 464.546875 297 405 C 297 345.453125 345.453125 297 405 297 Z M 405 297 " fill-opacity="1" fill-rule="nonzero"/><path fill="#00142e" d="M 280.90625 204.539062 C 278.371094 202 274.953125 200.582031 271.363281 200.582031 C 267.773438 200.582031 264.34375 202 261.820312 204.539062 L 204.539062 261.820312 C 202 264.355469 200.582031 267.785156 200.582031 271.363281 C 200.582031 274.941406 202 278.382812 204.539062 280.90625 L 228.917969 305.277344 C 220.699219 319.746094 214.324219 335.054688 209.910156 351 L 175.5 351 C 168.035156 351 162 357.046875 162 364.5 L 162 445.5 C 162 452.953125 168.035156 459 175.5 459 L 209.898438 459 C 214.3125 474.96875 220.671875 490.292969 228.878906 504.75 L 204.523438 529.105469 C 201.988281 531.644531 200.570312 535.074219 200.570312 538.648438 C 200.570312 542.226562 201.988281 545.671875 204.523438 548.195312 L 261.804688 605.476562 C 267.085938 610.753906 275.617188 610.753906 280.894531 605.476562 L 305.25 581.132812 C 319.707031 589.355469 335.03125 595.714844 351 600.117188 L 351 634.5 C 351 641.953125 357.035156 648 364.5 648 L 445.5 648 C 452.964844 648 459 641.953125 459 634.5 L 459 600.101562 C 474.945312 595.6875 490.253906 589.328125 504.738281 581.09375 L 529.105469 605.460938 C 531.644531 608 535.058594 609.417969 538.648438 609.417969 C 542.242188 609.417969 545.671875 608 548.195312 605.460938 L 605.476562 548.179688 C 608.011719 545.644531 609.429688 542.214844 609.429688 538.636719 C 609.429688 535.058594 608.011719 531.617188 605.476562 529.09375 L 581.09375 504.722656 C 589.316406 490.253906 595.6875 474.945312 600.101562 459 L 634.5 459 C 641.964844 459 648 452.953125 648 445.5 L 648 364.5 C 648 357.046875 641.964844 351 634.5 351 L 600.101562 351 C 595.6875 335.03125 589.328125 319.707031 581.121094 305.25 L 605.476562 280.894531 C 608.011719 278.355469 609.429688 274.925781 609.429688 271.351562 C 609.429688 267.773438 608.011719 264.328125 605.476562 261.804688 L 548.195312 204.523438 C 542.917969 199.246094 534.382812 199.246094 529.105469 204.523438 L 504.75 228.867188 C 490.292969 220.644531 474.96875 214.285156 459 209.882812 L 459 175.5 C 459 168.046875 452.964844 162 445.5 162 L 364.5 162 C 357.035156 162 351 168.046875 351 175.5 L 351 209.898438 C 335.054688 214.3125 319.746094 220.671875 305.261719 228.90625 Z M 367.390625 233.644531 C 373.585938 232.292969 378 226.800781 378 220.453125 L 378 189 L 432 189 L 432 220.453125 C 432 226.800781 436.414062 232.28125 442.609375 233.644531 C 462.832031 238.074219 481.976562 246.011719 499.527344 257.269531 C 504.859375 260.683594 511.851562 259.941406 516.363281 255.445312 L 538.636719 233.171875 L 576.828125 271.363281 L 554.554688 293.636719 C 550.070312 298.121094 549.300781 305.128906 552.730469 310.472656 C 563.976562 328.007812 571.925781 347.167969 576.355469 367.402344 C 577.71875 373.585938 583.199219 378 589.546875 378 L 621 378 L 621 432 L 589.546875 432 C 583.199219 432 577.71875 436.414062 576.355469 442.609375 C 571.925781 462.792969 563.976562 481.9375 552.703125 499.5 C 549.273438 504.847656 550.042969 511.851562 554.527344 516.335938 L 576.828125 538.636719 L 538.636719 576.828125 L 516.347656 554.527344 C 511.851562 550.03125 504.847656 549.289062 499.511719 552.703125 C 481.9375 563.976562 462.792969 571.941406 442.609375 576.34375 C 436.414062 577.707031 432 583.199219 432 589.546875 L 432 621 L 378 621 L 378 589.546875 C 378 583.199219 373.585938 577.71875 367.390625 576.355469 C 347.164062 571.925781 328.023438 563.988281 310.472656 552.730469 C 305.128906 549.300781 298.132812 550.042969 293.636719 554.554688 L 271.363281 576.828125 L 233.171875 538.636719 L 255.445312 516.363281 C 259.929688 511.878906 260.699219 504.871094 257.269531 499.527344 C 246.023438 481.992188 238.074219 462.835938 233.644531 442.597656 C 232.28125 436.414062 226.800781 432 220.453125 432 L 189 432 L 189 378 L 220.453125 378 C 226.800781 378 232.28125 373.585938 233.644531 367.390625 C 238.074219 347.207031 246.023438 328.0625 257.296875 310.5 C 260.726562 305.152344 259.957031 298.148438 255.472656 293.664062 L 233.171875 271.363281 L 271.363281 233.171875 L 293.652344 255.472656 C 298.160156 259.984375 305.167969 260.710938 310.488281 257.296875 C 328.0625 246.011719 347.207031 238.058594 367.390625 233.644531 Z M 367.390625 233.644531 " fill-opacity="1" fill-rule="nonzero"/><path fill="#00142e" d="M 405 81 C 427.328125 81 445.5 62.828125 445.5 40.5 C 445.5 18.171875 427.328125 0 405 0 C 382.671875 0 364.5 18.171875 364.5 40.5 C 364.5 62.828125 382.671875 81 405 81 Z M 405 27 C 412.453125 27 418.5 33.0625 418.5 40.5 C 418.5 47.9375 412.453125 54 405 54 C 397.546875 54 391.5 47.9375 391.5 40.5 C 391.5 33.0625 397.546875 27 405 27 Z M 405 27 " fill-opacity="1" fill-rule="nonzero"/><path fill="#00142e" d="M 405 729 C 382.671875 729 364.5 747.171875 364.5 769.5 C 364.5 791.828125 382.671875 810 405 810 C 427.328125 810 445.5 791.828125 445.5 769.5 C 445.5 747.171875 427.328125 729 405 729 Z M 405 783 C 397.546875 783 391.5 776.9375 391.5 769.5 C 391.5 762.0625 397.546875 756 405 756 C 412.453125 756 418.5 762.0625 418.5 769.5 C 418.5 776.9375 412.453125 783 405 783 Z M 405 783 " fill-opacity="1" fill-rule="nonzero"/><path fill="#00142e" d="M 769.5 364.5 C 747.171875 364.5 729 382.671875 729 405 C 729 427.328125 747.171875 445.5 769.5 445.5 C 791.828125 445.5 810 427.328125 810 405 C 810 382.671875 791.828125 364.5 769.5 364.5 Z M 769.5 418.5 C 762.046875 418.5 756 412.4375 756 405 C 756 397.5625 762.046875 391.5 769.5 391.5 C 776.953125 391.5 783 397.5625 783 405 C 783 412.4375 776.953125 418.5 769.5 418.5 Z M 769.5 418.5 " fill-opacity="1" fill-rule="nonzero"/><path fill="#00142e" d="M 40.5 445.5 C 62.828125 445.5 81 427.328125 81 405 C 81 382.671875 62.828125 364.5 40.5 364.5 C 18.171875 364.5 0 382.671875 0 405 C 0 427.328125 18.171875 445.5 40.5 445.5 Z M 40.5 391.5 C 47.953125 391.5 54 397.5625 54 405 C 54 412.4375 47.953125 418.5 40.5 418.5 C 33.046875 418.5 27 412.4375 27 405 C 27 397.5625 33.046875 391.5 40.5 391.5 Z M 40.5 391.5 " fill-opacity="1" fill-rule="nonzero"/><path fill="#00142e" d="M 234.550781 98.335938 L 243.6875 125.765625 C 245.160156 130.207031 248.832031 133.554688 253.394531 134.636719 C 254.433594 134.878906 255.472656 135 256.5 135 C 260.035156 135 263.492188 133.609375 266.042969 131.042969 L 333.542969 63.542969 C 337.164062 59.925781 338.417969 54.582031 336.796875 49.734375 C 335.191406 44.886719 330.964844 41.363281 325.902344 40.648438 L 231.402344 27.148438 C 226.707031 26.472656 222.117188 28.269531 219.132812 31.859375 C 216.121094 35.449219 215.203125 40.339844 216.6875 44.78125 L 225.882812 72.359375 C 125.96875 126.332031 54.351562 223.601562 33.480469 335.015625 L 60.007812 339.984375 C 79.109375 238.085938 143.910156 148.890625 234.550781 98.335938 Z M 295.367188 63.542969 L 262.414062 96.511719 L 249.210938 56.957031 Z M 295.367188 63.542969 " fill-opacity="1" fill-rule="nonzero"/><path fill="#00142e" d="M 776.546875 474.996094 L 750.019531 470.015625 C 730.875 571.996094 666.0625 661.203125 575.4375 711.679688 L 566.285156 684.234375 C 564.8125 679.792969 561.140625 676.445312 556.578125 675.363281 C 552.027344 674.269531 547.25 675.648438 543.929688 678.957031 L 476.429688 746.457031 C 472.808594 750.074219 471.554688 755.417969 473.175781 760.265625 C 474.78125 765.113281 479.007812 768.636719 484.070312 769.351562 L 578.570312 782.851562 C 579.230469 782.960938 579.867188 783 580.5 783 C 584.46875 783 588.277344 781.246094 590.867188 778.152344 C 593.878906 774.5625 594.796875 769.675781 593.3125 765.234375 L 584.117188 737.652344 C 684.003906 683.746094 755.636719 586.480469 776.546875 474.996094 Z M 514.632812 746.457031 L 547.585938 713.488281 L 560.789062 753.042969 Z M 514.632812 746.457031 " fill-opacity="1" fill-rule="nonzero"/><path fill="#00142e" d="M 711.679688 234.535156 L 684.21875 243.6875 C 679.777344 245.171875 676.429688 248.84375 675.351562 253.394531 C 674.285156 257.945312 675.632812 262.738281 678.957031 266.042969 L 746.457031 333.542969 C 749.019531 336.125 752.476562 337.5 756 337.5 C 757.417969 337.5 758.875 337.269531 760.265625 336.8125 C 765.113281 335.191406 768.636719 330.980469 769.363281 325.917969 L 782.863281 231.417969 C 783.527344 226.785156 781.746094 222.128906 778.140625 219.144531 C 774.535156 216.148438 769.648438 215.257812 765.21875 216.703125 L 737.652344 225.894531 C 683.894531 126.035156 586.628906 54.417969 474.996094 33.441406 L 470.015625 59.980469 C 572.128906 79.164062 661.324219 143.976562 711.679688 234.535156 Z M 746.457031 295.367188 L 713.5 262.398438 L 753.058594 249.210938 Z M 746.457031 295.367188 " fill-opacity="1" fill-rule="nonzero"/><path fill="#00142e" d="M 134.648438 556.605469 C 135.714844 552.054688 134.367188 547.261719 131.042969 543.957031 L 63.542969 476.457031 C 59.925781 472.824219 54.59375 471.570312 49.734375 473.1875 C 44.886719 474.808594 41.363281 479.019531 40.636719 484.082031 L 27.136719 578.582031 C 26.472656 583.214844 28.253906 587.871094 31.859375 590.855469 C 34.316406 592.921875 37.394531 594 40.5 594 C 41.929688 594 43.375 593.769531 44.765625 593.3125 L 72.332031 584.117188 C 126.171875 684.113281 223.453125 755.730469 335.015625 776.5625 L 339.96875 750.019531 C 237.910156 730.972656 148.714844 666.15625 98.308594 575.449219 L 125.765625 566.296875 C 130.222656 564.828125 133.570312 561.15625 134.648438 556.605469 Z M 63.542969 514.632812 L 96.496094 547.601562 L 56.941406 560.789062 Z M 63.542969 514.632812 " fill-opacity="1" fill-rule="nonzero"/></svg>