<svg xmlns="http://www.w3.org/2000/svg" xmlns:xlink="http://www.w3.org/1999/xlink" width="1080" zoomAndPan="magnify" viewBox="0 0 810 809.999993" height="1080" preserveAspectRatio="xMidYMid meet" version="1.0"><defs><clipPath id="b1e3918a22"><path d="M 25.3125 0 L 785.0625 0 L 785.0625 203 L 25.3125 203 Z M 25.3125 0 " clip-rule="nonzero"/></clipPath></defs><path fill="#00142e" d="M 719.21875 227.8125 L 91.15625 227.8125 C 86.992188 227.8125 83.089844 229.863281 80.734375 233.292969 C 78.367188 236.722656 77.835938 241.101562 79.332031 244.988281 L 127.675781 371.550781 C 129.550781 376.449219 134.261719 379.6875 139.515625 379.6875 L 670.871094 379.6875 C 676.128906 379.6875 680.824219 376.449219 682.710938 371.535156 L 731.058594 244.972656 C 732.539062 241.089844 732.007812 236.722656 729.652344 233.28125 C 727.285156 229.863281 723.382812 227.8125 719.21875 227.8125 Z M 662.148438 354.375 L 148.226562 354.375 L 109.542969 253.125 L 700.820312 253.125 Z M 662.148438 354.375 " fill-opacity="1" fill-rule="nonzero"/><path fill="#00142e" d="M 651.523438 405 L 158.851562 405 C 154.683594 405 150.785156 407.050781 148.429688 410.480469 C 146.0625 413.910156 145.53125 418.277344 147.023438 422.175781 L 195.355469 548.738281 C 197.230469 553.636719 201.929688 556.875 207.183594 556.875 L 603.179688 556.875 C 608.433594 556.875 613.132812 553.636719 615.019531 548.722656 L 663.351562 422.160156 C 664.832031 418.265625 664.300781 413.910156 661.945312 410.46875 C 659.589844 407.050781 655.691406 405 651.523438 405 Z M 594.464844 531.5625 L 215.910156 531.5625 L 177.238281 430.3125 L 633.136719 430.3125 Z M 594.464844 531.5625 " fill-opacity="1" fill-rule="nonzero"/><path fill="#00142e" d="M 583.84375 582.1875 L 226.53125 582.1875 C 222.367188 582.1875 218.464844 584.238281 216.109375 587.667969 C 213.742188 591.097656 213.210938 595.476562 214.707031 599.363281 L 292.0625 801.863281 C 293.933594 806.761719 298.632812 810 303.886719 810 L 506.488281 810 C 511.742188 810 516.441406 806.761719 518.328125 801.847656 L 595.683594 599.347656 C 597.164062 595.464844 596.632812 591.097656 594.277344 587.65625 C 591.910156 584.238281 588.007812 582.1875 583.84375 582.1875 Z M 497.777344 784.6875 L 312.597656 784.6875 L 244.90625 607.5 L 565.445312 607.5 Z M 497.777344 784.6875 " fill-opacity="1" fill-rule="nonzero"/><g clip-path="url(#b1e3918a22)"><path fill="#00142e" d="M 772.398438 0 L 37.976562 0 C 30.972656 0 25.3125 5.65625 25.3125 12.65625 L 25.3125 101.25 C 25.3125 102.792969 25.589844 104.324219 26.136719 105.753906 L 59.984375 194.347656 C 61.871094 199.261719 66.566406 202.5 71.820312 202.5 L 738.554688 202.5 C 743.808594 202.5 748.507812 199.261719 750.394531 194.347656 L 784.238281 105.753906 C 784.785156 104.324219 785.0625 102.792969 785.0625 101.25 L 785.0625 12.65625 C 785.0625 5.65625 779.402344 0 772.398438 0 Z M 759.738281 98.910156 L 729.839844 177.1875 L 80.535156 177.1875 L 50.636719 98.910156 L 50.636719 25.3125 L 759.738281 25.3125 Z M 759.738281 98.910156 " fill-opacity="1" fill-rule="nonzero"/></g><path fill="#00142e" d="M 405.1875 734.0625 C 398.199219 734.0625 392.523438 728.390625 392.523438 721.40625 L 367.199219 721.40625 C 367.199219 737.882812 377.824219 751.804688 392.523438 757.046875 L 392.523438 772.03125 L 417.851562 772.03125 L 417.851562 757.046875 C 432.550781 751.804688 443.175781 737.882812 443.175781 721.40625 C 443.175781 700.472656 426.132812 683.4375 405.1875 683.4375 C 398.199219 683.4375 392.523438 677.765625 392.523438 670.78125 C 392.523438 663.796875 398.199219 658.125 405.1875 658.125 C 412.175781 658.125 417.851562 663.796875 417.851562 670.78125 L 443.175781 670.78125 C 443.175781 654.304688 432.550781 640.382812 417.851562 635.140625 L 417.851562 620.15625 L 392.523438 620.15625 L 392.523438 635.140625 C 377.824219 640.382812 367.199219 654.304688 367.199219 670.78125 C 367.199219 691.714844 384.242188 708.75 405.1875 708.75 C 412.175781 708.75 417.851562 714.421875 417.851562 721.40625 C 417.851562 728.390625 412.175781 734.0625 405.1875 734.0625 Z M 405.1875 734.0625 " fill-opacity="1" fill-rule="nonzero"/></svg>