<svg xmlns="http://www.w3.org/2000/svg" xmlns:xlink="http://www.w3.org/1999/xlink" width="1080" zoomAndPan="magnify" viewBox="0 0 810 809.999993" height="1080" preserveAspectRatio="xMidYMid meet" version="1.0"><defs><clipPath id="8ddd69c990"><path d="M 0 47.585938 L 810 47.585938 L 810 762.335938 L 0 762.335938 Z M 0 47.585938 " clip-rule="nonzero"/></clipPath></defs><g clip-path="url(#8ddd69c990)"><path fill="#00142e" d="M 764.730469 400.863281 L 585.109375 400.863281 L 585.109375 362.886719 C 585.109375 326.109375 553.519531 296.210938 514.703125 296.210938 L 295.296875 296.210938 C 277.84375 296.210938 263.640625 283.671875 263.640625 268.269531 L 263.640625 200.289062 L 443.25 200.289062 C 468 200.289062 488.136719 180.976562 488.136719 157.269531 L 488.136719 90.390625 C 488.136719 66.65625 468 47.371094 443.25 47.371094 L 45.269531 47.371094 C 20.507812 47.359375 0.382812 66.65625 0.382812 90.390625 L 0.382812 157.253906 C 0.382812 180.976562 20.507812 200.273438 45.269531 200.273438 L 224.890625 200.273438 L 224.890625 268.257812 C 224.890625 305.03125 256.480469 334.929688 295.296875 334.929688 L 514.703125 334.929688 C 532.15625 334.929688 546.359375 347.472656 546.359375 362.875 L 546.359375 400.847656 L 366.738281 400.847656 C 341.988281 400.847656 321.851562 420.160156 321.851562 443.871094 L 321.851562 510.730469 C 321.851562 534.453125 341.988281 553.753906 366.738281 553.753906 L 553.144531 553.753906 L 553.144531 638.78125 C 553.144531 654.195312 538.941406 666.722656 521.488281 666.722656 L 488.136719 666.722656 L 488.136719 652.65625 C 488.136719 628.9375 468.011719 609.652344 443.261719 609.652344 L 45.269531 609.652344 C 20.519531 609.679688 0.382812 628.960938 0.382812 652.683594 L 0.382812 719.546875 C 0.382812 743.269531 20.519531 762.554688 45.269531 762.554688 L 443.277344 762.554688 C 468.027344 762.554688 488.148438 743.253906 488.148438 719.546875 L 488.148438 705.480469 L 521.503906 705.480469 C 560.316406 705.480469 591.90625 675.570312 591.90625 638.808594 L 591.90625 553.777344 L 764.730469 553.777344 C 789.492188 553.777344 809.613281 534.46875 809.613281 510.757812 L 809.613281 443.894531 C 809.613281 420.175781 789.492188 400.863281 764.730469 400.863281 Z M 39.121094 157.253906 L 39.121094 90.390625 C 39.121094 88.367188 41.65625 86.101562 45.269531 86.101562 L 443.261719 86.101562 C 446.890625 86.101562 449.414062 88.367188 449.414062 90.390625 L 449.414062 157.253906 C 449.414062 159.277344 446.878906 161.53125 443.261719 161.53125 L 45.269531 161.53125 C 41.65625 161.53125 39.121094 159.277344 39.121094 157.253906 Z M 443.277344 723.835938 L 45.269531 723.835938 C 41.640625 723.835938 39.132812 721.582031 39.132812 719.558594 L 39.132812 652.699219 C 39.132812 650.675781 41.65625 648.421875 45.269531 648.421875 L 443.277344 648.421875 C 446.90625 648.421875 449.414062 650.675781 449.414062 652.699219 L 449.414062 719.574219 C 449.414062 721.582031 446.890625 723.835938 443.277344 723.835938 Z M 770.878906 510.757812 C 770.878906 512.78125 768.34375 515.046875 764.730469 515.046875 L 366.738281 515.046875 C 363.109375 515.046875 360.585938 512.78125 360.585938 510.757812 L 360.585938 443.894531 C 360.585938 441.875 363.121094 439.621094 366.738281 439.621094 L 764.730469 439.621094 C 768.359375 439.621094 770.878906 441.875 770.878906 443.894531 Z M 770.878906 510.757812 " fill-opacity="1" fill-rule="nonzero"/></g></svg>