<svg xmlns="http://www.w3.org/2000/svg" xmlns:xlink="http://www.w3.org/1999/xlink" width="1080" zoomAndPan="magnify" viewBox="0 0 810 809.999993" height="1080" preserveAspectRatio="xMidYMid meet" version="1.0"><defs><clipPath id="216f0c8351"><path d="M 0 86.0625 L 810 86.0625 L 810 728.8125 L 0 728.8125 Z M 0 86.0625 " clip-rule="nonzero"/></clipPath></defs><g clip-path="url(#216f0c8351)"><path fill="#00142e" d="M 489.625 483.691406 L 453.308594 483.691406 L 453.308594 457.214844 C 453.308594 404.636719 421.027344 359.476562 375.25 340.445312 C 395.121094 325.644531 408.015625 301.980469 408.015625 275.363281 C 408.015625 230.625 371.613281 194.234375 326.871094 194.234375 C 282.125 194.234375 245.722656 230.625 245.722656 275.363281 C 245.722656 301.980469 258.617188 325.644531 278.488281 340.445312 C 232.714844 359.476562 200.425781 404.636719 200.425781 457.214844 L 200.425781 483.691406 L 26.34375 483.691406 L 26.34375 136.539062 C 26.34375 122.796875 37.53125 111.613281 51.28125 111.613281 L 589.199219 111.613281 C 602.949219 111.613281 614.136719 122.796875 614.136719 136.539062 L 614.136719 175.527344 C 568.753906 189.78125 535.738281 232.238281 535.738281 282.25 C 535.738281 322.039062 556.640625 357.011719 588.023438 376.847656 C 538.886719 392.136719 500.898438 432.941406 489.625 483.691406 Z M 411.296875 618.859375 C 362.03125 618.859375 321.234375 655.699219 314.960938 703.261719 L 263.605469 703.261719 L 263.605469 597.550781 L 486.1875 597.550781 L 486.1875 618.859375 Z M 326.871094 356.480469 C 327.746094 356.480469 328.617188 356.445312 329.496094 356.414062 C 383.914062 357.816406 427.761719 402.480469 427.761719 457.214844 L 427.761719 483.691406 L 225.980469 483.691406 L 225.980469 457.214844 C 225.980469 402.480469 269.824219 357.816406 324.246094 356.414062 C 325.121094 356.445312 325.992188 356.480469 326.871094 356.480469 Z M 271.269531 275.363281 C 271.269531 244.710938 296.214844 219.78125 326.871094 219.78125 C 357.523438 219.78125 382.464844 244.710938 382.464844 275.363281 C 382.464844 305.125 358.933594 329.496094 329.496094 330.875 C 328.617188 330.855469 327.746094 330.804688 326.871094 330.804688 C 325.992188 330.804688 325.121094 330.855469 324.246094 330.875 C 294.804688 329.496094 271.269531 305.125 271.269531 275.363281 Z M 26.34375 547.074219 L 26.34375 509.238281 L 486.308594 509.238281 C 486.234375 511.179688 486.1875 513.128906 486.1875 515.097656 L 486.1875 572.003906 L 51.28125 572.003906 C 37.53125 572.003906 26.34375 560.820312 26.34375 547.074219 Z M 733.9375 282.25 C 733.9375 329.84375 695.210938 368.554688 647.605469 368.554688 C 600.007812 368.554688 561.285156 329.84375 561.285156 282.25 C 561.285156 234.660156 600.007812 195.945312 647.605469 195.945312 C 695.210938 195.945312 733.9375 234.660156 733.9375 282.25 Z M 707.1875 376.847656 C 738.578125 357.011719 759.480469 322.039062 759.480469 282.25 C 759.480469 220.589844 709.285156 170.40625 647.605469 170.40625 C 644.941406 170.40625 642.308594 170.535156 639.683594 170.71875 L 639.683594 136.539062 C 639.683594 108.703125 617.039062 86.066406 589.199219 86.066406 L 51.28125 86.066406 C 23.441406 86.066406 0.789062 108.703125 0.789062 136.539062 L 0.789062 547.074219 C 0.789062 574.914062 23.441406 597.550781 51.28125 597.550781 L 238.050781 597.550781 L 238.050781 703.261719 L 165.621094 703.261719 C 158.570312 703.261719 152.847656 708.984375 152.847656 716.039062 C 152.847656 723.089844 158.570312 728.808594 165.621094 728.808594 L 538.464844 728.808594 C 574.304688 728.808594 603.46875 699.660156 603.46875 663.820312 L 603.46875 521.90625 C 603.46875 514.855469 597.746094 509.136719 590.695312 509.136719 C 583.636719 509.136719 577.917969 514.855469 577.917969 521.90625 L 577.917969 663.820312 C 577.917969 685.574219 560.21875 703.261719 538.464844 703.261719 L 340.785156 703.261719 C 346.824219 669.832031 376.148438 644.398438 411.296875 644.398438 L 498.957031 644.398438 C 506.011719 644.398438 511.734375 638.679688 511.734375 631.628906 L 511.734375 515.097656 C 511.734375 449.363281 565.230469 395.882812 630.980469 395.882812 L 664.238281 395.882812 C 729.988281 395.882812 783.484375 449.363281 783.484375 515.097656 L 783.484375 716.039062 C 783.484375 723.089844 789.207031 728.808594 796.257812 728.808594 C 803.316406 728.808594 809.03125 723.089844 809.03125 716.039062 L 809.03125 515.097656 C 809.03125 450.21875 766.121094 395.179688 707.1875 376.847656 " fill-opacity="1" fill-rule="nonzero"/></g></svg>