<svg xmlns="http://www.w3.org/2000/svg" xmlns:xlink="http://www.w3.org/1999/xlink" width="1080" zoomAndPan="magnify" viewBox="0 0 810 809.999993" height="1080" preserveAspectRatio="xMidYMid meet" version="1.0"><defs><clipPath id="124d186e6c"><path d="M 407 377 L 800.144531 377 L 800.144531 756.394531 L 407 756.394531 Z M 407 377 " clip-rule="nonzero"/></clipPath><clipPath id="844db0cfbb"><path d="M 9.644531 53.132812 L 507 53.132812 L 507 690 L 9.644531 690 Z M 9.644531 53.132812 " clip-rule="nonzero"/></clipPath></defs><g clip-path="url(#124d186e6c)"><path fill="#00142e" d="M 699.921875 715.828125 L 624.714844 677.472656 C 612.542969 671.261719 598.113281 671.433594 586.085938 677.941406 L 511.832031 718.15625 C 510.472656 718.902344 509.132812 718.828125 507.851562 717.914062 C 506.578125 717.019531 506.050781 715.777344 506.304688 714.242188 L 519.539062 630.863281 C 521.675781 617.363281 517.058594 603.683594 507.152344 594.265625 L 445.957031 536.082031 C 444.832031 535.007812 444.492188 533.710938 444.960938 532.226562 C 445.417969 530.738281 446.429688 529.863281 447.980469 529.621094 L 531.386719 516.445312 C 544.878906 514.308594 556.460938 505.675781 562.351562 493.355469 L 562.355469 493.347656 L 598.789062 417.175781 C 599.460938 415.773438 600.585938 415.058594 602.140625 415.03125 C 602.160156 415.03125 602.179688 415.03125 602.210938 415.03125 C 603.730469 415.03125 604.851562 415.722656 605.550781 417.09375 L 643.859375 492.339844 C 650.058594 504.519531 661.84375 512.863281 675.398438 514.660156 L 759.097656 525.761719 C 760.644531 525.972656 761.679688 526.824219 762.179688 528.300781 C 762.675781 529.777344 762.371094 531.078125 761.265625 532.179688 L 701.535156 591.859375 C 691.863281 601.523438 687.578125 615.316406 690.054688 628.742188 L 705.363281 711.777344 C 705.648438 713.308594 705.148438 714.554688 703.90625 715.488281 C 702.660156 716.425781 701.3125 716.539062 699.921875 715.828125 Z M 787.941406 558.875 C 799.199219 547.625 803.019531 531.269531 797.917969 516.203125 C 792.8125 501.117188 779.84375 490.453125 764.058594 488.359375 L 680.363281 477.253906 C 679.128906 477.089844 678.054688 476.328125 677.492188 475.222656 L 639.175781 399.976562 C 631.945312 385.785156 617.242188 377.066406 601.664062 377.300781 C 585.75 377.5 571.597656 386.550781 564.734375 400.902344 L 528.316406 477.0625 C 527.773438 478.1875 526.722656 478.976562 525.488281 479.167969 L 442.097656 492.339844 C 426.367188 494.824219 413.664062 505.808594 408.925781 521.007812 C 404.1875 536.207031 408.417969 552.460938 419.957031 563.425781 L 481.140625 621.609375 C 482.046875 622.464844 482.46875 623.703125 482.261719 624.9375 L 469.027344 708.332031 C 466.539062 724.046875 473.0625 739.53125 486.054688 748.726562 C 493.25 753.8125 501.605469 756.394531 510 756.394531 C 516.761719 756.394531 523.5625 754.722656 529.796875 751.34375 L 604.050781 711.128906 C 605.144531 710.535156 606.453125 710.523438 607.570312 711.085938 L 682.785156 749.441406 C 696.964844 756.667969 713.699219 755.257812 726.460938 745.742188 C 739.21875 736.226562 745.359375 720.589844 742.472656 704.941406 L 727.171875 621.902344 C 726.949219 620.683594 727.335938 619.429688 728.21875 618.554688 L 787.941406 558.875 " fill-opacity="1" fill-rule="nonzero"/></g><g clip-path="url(#844db0cfbb)"><path fill="#00142e" d="M 371.703125 336.023438 C 364.140625 339.5 359.753906 347.53125 360.902344 355.773438 C 362.058594 364.015625 368.46875 370.539062 376.695312 371.8125 C 410.816406 377.097656 444.324219 392.046875 476.316406 416.253906 C 484.636719 422.554688 496.457031 420.894531 502.75 412.597656 C 509.042969 404.289062 507.398438 392.457031 499.085938 386.167969 C 475.585938 368.382812 451.1875 354.878906 426.179688 345.792969 C 464.132812 314.066406 487.730469 267.164062 487.730469 219.039062 C 487.730469 127.644531 414.503906 53.292969 324.484375 53.292969 C 233.976562 53.292969 160.355469 127.253906 160.355469 218.167969 C 160.355469 267.59375 178.433594 310.929688 210.257812 340.839844 C 94.777344 375.972656 9.644531 485.519531 9.644531 607.980469 C 9.644531 646.910156 53.101562 689.402344 92.683594 689.402344 L 387.429688 689.402344 C 397.851562 689.402344 406.300781 680.851562 406.300781 670.433594 C 406.300781 660.015625 397.851562 651.460938 387.429688 651.460938 L 92.683594 651.460938 C 74.054688 651.460938 47.382812 625.953125 47.382812 607.882812 C 47.382812 488.871094 140.441406 383.871094 259.226562 368.601562 C 267.523438 367.53125 274.121094 361.21875 275.449219 352.964844 C 276.777344 344.707031 272.515625 336.605469 264.96875 333 C 223.089844 312.964844 198.097656 270.046875 198.097656 218.144531 C 198.097656 148.039062 254.796875 91.015625 324.484375 91.015625 C 393.683594 91.015625 449.988281 148.449219 449.988281 219.03125 C 449.988281 267.464844 418.53125 314.484375 371.703125 336.023438 " fill-opacity="1" fill-rule="nonzero"/></g></svg>