<svg xmlns="http://www.w3.org/2000/svg" xmlns:xlink="http://www.w3.org/1999/xlink" width="1080" zoomAndPan="magnify" viewBox="0 0 810 809.999993" height="1080" preserveAspectRatio="xMidYMid meet" version="1.0"><defs><clipPath id="d96341ee77"><path d="M 512 30.375 L 629 30.375 L 629 147 L 512 147 Z M 512 30.375 " clip-rule="nonzero"/></clipPath><clipPath id="3963442510"><path d="M 428 285 L 809 285 L 809 779.625 L 428 779.625 Z M 428 285 " clip-rule="nonzero"/></clipPath><clipPath id="be690ceeab"><path d="M 1 285 L 382 285 L 382 779.625 L 1 779.625 Z M 1 285 " clip-rule="nonzero"/></clipPath></defs><path fill="#00142e" d="M 302.675781 327.675781 L 328.683594 327.675781 L 328.683594 494.109375 C 328.683594 499.554688 333.09375 503.960938 338.535156 503.960938 L 471.507812 503.960938 C 476.949219 503.960938 481.359375 499.554688 481.359375 494.109375 L 481.359375 327.675781 L 507.367188 327.675781 C 512.804688 327.675781 517.21875 323.269531 517.21875 317.824219 L 517.21875 237.660156 C 517.21875 197.441406 487.765625 164.058594 449.320312 157.707031 C 460.476562 146.429688 467.390625 130.945312 467.390625 113.867188 C 467.390625 79.472656 439.410156 51.496094 405.023438 51.496094 C 370.632812 51.496094 342.652344 79.472656 342.652344 113.867188 C 342.652344 130.945312 349.566406 146.429688 360.722656 157.707031 C 322.277344 164.058594 292.824219 197.441406 292.824219 237.660156 L 292.824219 317.824219 C 292.824219 323.269531 297.238281 327.675781 302.675781 327.675781 Z M 405.023438 71.199219 C 428.546875 71.199219 447.6875 90.34375 447.6875 113.867188 C 447.6875 137.390625 428.546875 156.527344 405.023438 156.527344 C 381.5 156.527344 362.355469 137.390625 362.355469 113.867188 C 362.355469 90.34375 381.5 71.199219 405.023438 71.199219 Z M 312.53125 237.660156 C 312.53125 203.785156 340.089844 176.230469 373.964844 176.230469 L 436.078125 176.230469 C 469.953125 176.230469 497.511719 203.785156 497.511719 237.660156 L 497.511719 307.972656 L 471.507812 307.972656 C 466.066406 307.972656 461.65625 312.378906 461.65625 317.824219 L 461.65625 484.257812 L 414.875 484.257812 L 414.875 379.351562 C 414.875 373.90625 410.460938 369.5 405.023438 369.5 C 399.582031 369.5 395.167969 373.90625 395.167969 379.351562 L 395.167969 484.257812 L 348.386719 484.257812 L 348.386719 317.824219 C 348.386719 312.378906 343.976562 307.972656 338.535156 307.972656 L 312.53125 307.972656 Z M 312.53125 237.660156 " fill-opacity="1" fill-rule="nonzero"/><path fill="#00142e" d="M 122.933594 214.707031 C 155.25 214.707031 181.539062 240.941406 181.539062 273.191406 C 181.539062 278.636719 185.949219 283.042969 191.390625 283.042969 C 196.832031 283.042969 201.242188 278.636719 201.242188 273.191406 C 201.242188 240.941406 227.484375 214.707031 259.734375 214.707031 C 265.175781 214.707031 269.585938 210.300781 269.585938 204.855469 C 269.585938 199.40625 265.175781 195 259.734375 195 C 227.484375 195 201.242188 168.707031 201.242188 136.390625 C 201.242188 130.945312 196.832031 126.539062 191.390625 126.539062 C 185.949219 126.539062 181.539062 130.945312 181.539062 136.390625 C 181.539062 168.707031 155.25 195 122.933594 195 C 117.492188 195 113.082031 199.40625 113.082031 204.855469 C 113.082031 210.300781 117.492188 214.707031 122.933594 214.707031 Z M 191.382812 174.402344 C 198.488281 187.160156 209.039062 197.734375 221.777344 204.84375 C 209.039062 211.945312 198.488281 222.5 191.382812 235.238281 C 184.273438 222.5 173.703125 211.945312 160.945312 204.84375 C 173.703125 197.734375 184.273438 187.160156 191.382812 174.402344 Z M 191.382812 174.402344 " fill-opacity="1" fill-rule="nonzero"/><g clip-path="url(#d96341ee77)"><path fill="#00142e" d="M 522.421875 98.136719 C 543.558594 98.136719 560.757812 115.300781 560.757812 136.390625 C 560.757812 141.835938 565.167969 146.242188 570.609375 146.242188 C 576.050781 146.242188 580.460938 141.835938 580.460938 136.390625 C 580.460938 115.300781 597.621094 98.136719 618.710938 98.136719 C 624.152344 98.136719 628.5625 93.730469 628.5625 88.285156 C 628.5625 82.839844 624.152344 78.433594 618.710938 78.433594 C 597.621094 78.433594 580.460938 61.242188 580.460938 40.101562 C 580.460938 34.65625 576.050781 30.25 570.609375 30.25 C 565.167969 30.25 560.757812 34.65625 560.757812 40.101562 C 560.757812 61.242188 543.558594 78.433594 522.421875 78.433594 C 516.980469 78.433594 512.570312 82.839844 512.570312 88.285156 C 512.570312 93.730469 516.980469 98.136719 522.421875 98.136719 Z M 570.601562 72.429688 C 574.804688 78.683594 580.1875 84.070312 586.425781 88.277344 C 580.1875 92.480469 574.804688 97.867188 570.601562 104.101562 C 566.394531 97.867188 561.003906 92.480469 554.753906 88.277344 C 561.003906 84.070312 566.394531 78.683594 570.601562 72.429688 Z M 570.601562 72.429688 " fill-opacity="1" fill-rule="nonzero"/></g><path fill="#00142e" d="M 616.996094 187.71875 C 616.996094 208.855469 599.800781 226.058594 578.664062 226.058594 C 573.222656 226.058594 568.808594 230.464844 568.808594 235.910156 C 568.808594 241.355469 573.222656 245.761719 578.664062 245.761719 C 599.800781 245.761719 616.996094 262.925781 616.996094 284.015625 C 616.996094 289.460938 621.410156 293.867188 626.847656 293.867188 C 632.289062 293.867188 636.699219 289.460938 636.699219 284.015625 C 636.699219 262.925781 653.859375 245.761719 674.949219 245.761719 C 680.390625 245.761719 684.800781 241.355469 684.800781 235.910156 C 684.800781 230.464844 680.390625 226.058594 674.949219 226.058594 C 653.859375 226.058594 636.699219 208.855469 636.699219 187.71875 C 636.699219 182.273438 632.289062 177.867188 626.847656 177.867188 C 621.410156 177.867188 616.996094 182.273438 616.996094 187.71875 Z M 642.671875 235.902344 C 636.425781 240.105469 631.042969 245.492188 626.839844 251.726562 C 622.636719 245.492188 617.242188 240.105469 610.988281 235.902344 C 617.242188 231.695312 622.636719 226.300781 626.839844 220.054688 C 631.042969 226.300781 636.425781 231.695312 642.671875 235.902344 Z M 642.671875 235.902344 " fill-opacity="1" fill-rule="nonzero"/><g clip-path="url(#3963442510)"><path fill="#00142e" d="M 793.226562 345.707031 C 791.726562 329.253906 784.152344 314.082031 771.921875 302.96875 C 759.703125 291.847656 743.898438 285.726562 727.414062 285.726562 C 693.5625 285.726562 665.320312 311.097656 661.710938 344.742188 L 647.109375 482.113281 L 606.476562 522.742188 C 604.25 518.816406 601.496094 515.191406 598.261719 511.949219 C 588.726562 502.355469 576.039062 497.054688 562.539062 497.035156 C 562.507812 497.035156 562.480469 497.035156 562.449219 497.035156 C 548.976562 497.035156 536.304688 502.289062 526.78125 511.8125 L 451.765625 586.597656 C 436.964844 601.335938 428.472656 621.78125 428.472656 642.6875 L 428.472656 769.898438 C 428.472656 775.34375 432.882812 779.75 438.324219 779.75 L 626.804688 779.75 C 632.246094 779.75 636.65625 775.34375 636.65625 769.898438 L 636.65625 722.046875 L 785.191406 573.511719 C 800.515625 558.195312 808.953125 537.820312 808.90625 515.238281 Z M 616.953125 760.046875 L 448.175781 760.046875 L 448.175781 724.96875 L 616.953125 724.96875 Z M 771.261719 559.582031 L 625.578125 705.261719 L 448.175781 705.261719 L 448.175781 642.6875 C 448.175781 626.988281 454.550781 611.632812 465.671875 600.546875 L 540.703125 525.753906 C 546.519531 519.941406 554.238281 516.738281 562.449219 516.738281 C 562.46875 516.738281 562.484375 516.738281 562.503906 516.738281 C 570.734375 516.757812 578.464844 519.980469 584.304688 525.859375 C 588.785156 530.332031 591.746094 536.027344 592.863281 542.273438 C 593.175781 544.054688 593.328125 545.824219 593.328125 547.601562 C 593.328125 555.847656 590.136719 563.554688 584.296875 569.367188 C 584.28125 569.386719 584.261719 569.40625 584.246094 569.425781 C 584.226562 569.433594 584.214844 569.453125 584.195312 569.472656 L 534.03125 619.425781 C 530.167969 623.253906 530.136719 629.488281 533.96875 633.355469 C 537.804688 637.222656 544.035156 637.242188 547.902344 633.414062 L 598.09375 583.433594 C 607.726562 573.917969 613.035156 561.1875 613.035156 547.601562 C 613.035156 547.535156 613.035156 547.46875 613.035156 547.402344 C 613.027344 546.324219 612.988281 545.246094 612.914062 544.167969 L 663.503906 493.582031 C 665.097656 491.992188 666.097656 489.894531 666.339844 487.65625 L 681.304688 346.832031 C 683.835938 323.230469 703.660156 305.433594 727.414062 305.433594 C 738.984375 305.433594 750.082031 309.734375 758.667969 317.546875 C 767.246094 325.339844 772.550781 335.980469 773.609375 347.503906 L 789.246094 516.140625 C 789.246094 532.324219 782.691406 548.152344 771.261719 559.582031 Z M 771.261719 559.582031 " fill-opacity="1" fill-rule="nonzero"/></g><g clip-path="url(#be690ceeab)"><path fill="#00142e" d="M 283.273438 511.824219 C 273.71875 502.269531 261.308594 497.0625 247.503906 497.035156 C 234.003906 497.054688 221.316406 502.355469 211.808594 511.929688 C 208.558594 515.171875 205.796875 518.808594 203.570312 522.742188 L 162.933594 482.113281 L 148.328125 344.734375 C 144.722656 311.097656 116.480469 285.726562 82.628906 285.726562 C 66.144531 285.726562 50.339844 291.847656 38.128906 302.960938 C 25.890625 314.082031 18.316406 329.253906 16.816406 345.695312 L 1.089844 516.140625 C 1.089844 537.820312 9.527344 558.195312 24.851562 573.511719 L 173.386719 722.046875 L 173.386719 769.898438 C 173.386719 775.34375 177.796875 779.75 183.238281 779.75 L 371.71875 779.75 C 377.160156 779.75 381.570312 775.34375 381.570312 769.898438 L 381.570312 642.6875 C 381.570312 621.78125 373.078125 601.335938 358.28125 586.597656 Z M 361.867188 760.046875 L 193.089844 760.046875 L 193.089844 724.96875 L 361.867188 724.96875 Z M 361.867188 705.261719 L 184.464844 705.261719 L 38.78125 559.582031 C 27.351562 548.152344 20.796875 532.324219 20.753906 517.046875 L 36.433594 347.496094 C 37.492188 335.980469 42.800781 325.339844 51.378906 317.535156 C 59.960938 309.734375 71.0625 305.433594 82.628906 305.433594 C 106.382812 305.433594 126.207031 323.230469 128.734375 346.820312 L 143.703125 487.65625 C 143.945312 489.894531 144.945312 491.992188 146.539062 493.582031 L 197.128906 544.167969 C 197.046875 545.3125 197.011719 546.457031 197.011719 547.601562 C 197.011719 547.71875 197.011719 547.84375 197.011719 547.960938 C 197.101562 561.398438 202.382812 573.964844 211.878906 583.363281 C 211.894531 583.382812 211.90625 583.394531 211.925781 583.414062 L 262.140625 633.414062 C 266.003906 637.234375 272.230469 637.214844 276.074219 633.355469 C 279.90625 629.488281 279.875 623.253906 276.011719 619.425781 L 225.863281 569.480469 C 225.84375 569.460938 225.820312 569.441406 225.796875 569.425781 C 219.941406 563.632812 216.714844 555.886719 216.714844 547.601562 C 216.714844 547.566406 216.714844 547.515625 216.714844 547.476562 C 216.722656 545.757812 216.871094 544.023438 217.175781 542.292969 C 218.304688 536.019531 221.269531 530.332031 225.761719 525.839844 C 231.578125 519.980469 239.308594 516.757812 247.539062 516.738281 C 247.558594 516.738281 247.574219 516.738281 247.59375 516.738281 C 255.804688 516.738281 263.523438 519.941406 269.351562 525.761719 L 344.375 600.546875 C 355.492188 611.632812 361.867188 626.988281 361.867188 642.6875 Z M 361.867188 705.261719 " fill-opacity="1" fill-rule="nonzero"/></g><path fill="#00142e" d="M 686.226562 572.90625 L 626.496094 632.632812 C 622.648438 636.484375 622.648438 642.71875 626.496094 646.566406 C 628.421875 648.488281 630.941406 649.453125 633.464844 649.453125 C 635.984375 649.453125 638.503906 648.488281 640.429688 646.566406 L 700.15625 586.839844 C 704.003906 582.988281 704.003906 576.753906 700.15625 572.90625 C 696.308594 569.058594 690.074219 569.058594 686.226562 572.90625 Z M 686.226562 572.90625 " fill-opacity="1" fill-rule="nonzero"/><path fill="#00142e" d="M 734.253906 524.878906 L 723.171875 535.960938 C 719.320312 539.808594 719.320312 546.042969 723.171875 549.894531 C 725.09375 551.816406 727.613281 552.78125 730.136719 552.78125 C 732.65625 552.78125 735.175781 551.816406 737.101562 549.894531 L 748.183594 538.808594 C 752.035156 534.960938 752.035156 528.726562 748.183594 524.878906 C 744.335938 521.03125 738.101562 521.03125 734.253906 524.878906 Z M 734.253906 524.878906 " fill-opacity="1" fill-rule="nonzero"/></svg>