<?xml version="1.0" standalone="no"?>
<!DOCTYPE svg PUBLIC "-//W3C//DTD SVG 20010904//EN"
 "http://www.w3.org/TR/2001/REC-SVG-20010904/DTD/svg10.dtd">
<svg version="1.0" xmlns="http://www.w3.org/2000/svg"
 width="1920.000000pt" height="1080.000000pt" viewBox="0 0 1920.000000 1080.000000"
 preserveAspectRatio="xMidYMid meet">
<metadata>
Created by potrace 1.16, written by Peter Selinger 2001-2019
</metadata>
<g transform="translate(0.000000,1080.000000) scale(0.100000,-0.100000)"
fill="#000000" stroke="none">
<path d="M18416 10284 c-3 -9 -6 -132 -6 -274 0 -142 3 -265 6 -274 3 -9 17
-16 30 -16 l24 0 0 290 0 290 -24 0 c-13 0 -27 -7 -30 -16z"/>
<path d="M18194 9416 l-34 -34 0 -144 0 -145 -117 -32 c-65 -18 -269 -75 -453
-126 -740 -207 -2168 -604 -2192 -610 -24 -6 -25 -4 -31 48 -6 64 -27 100 -66
117 -19 7 -95 10 -239 8 l-212 -3 -27 -28 -28 -27 -3 -212 -3 -212 -602 -1098
-602 -1097 -197 -3 -198 -3 -32 -32 c-29 -30 -33 -40 -36 -103 l-4 -70 -1182
0 c-649 0 -1258 -3 -1352 -7 l-172 -6 -4 71 c-3 52 -9 79 -24 99 -38 51 -52
54 -276 51 l-208 -3 -32 -33 -33 -32 -3 -204 -3 -204 -1087 -989 c-598 -545
-1171 -1067 -1274 -1162 l-188 -171 -172 -1 c-107 0 -186 -5 -207 -12 -52 -18
-74 -56 -79 -132 l-4 -65 -33 0 c-18 0 -275 16 -571 35 -297 19 -791 50 -1099
70 -308 20 -760 49 -1005 65 -245 17 -452 30 -461 30 -14 0 -18 14 -21 76 -3
73 -5 77 -41 110 l-37 34 -210 0 -210 0 -38 -34 -37 -34 -2 -216 -2 -216 -448
-403 c-246 -221 -781 -701 -1188 -1067 -407 -365 -779 -699 -827 -743 -78 -70
-88 -83 -88 -113 0 -40 29 -74 65 -74 16 0 55 27 117 82 78 68 1436 1287 2262
2030 l231 208 170 0 c104 1 184 6 205 13 53 18 80 67 80 143 0 44 4 64 12 64
7 0 321 -20 698 -45 769 -50 2183 -141 2362 -151 l116 -7 4 -79 c3 -77 4 -81
40 -114 l38 -34 211 0 211 0 40 39 39 39 -3 211 c-2 116 0 212 3 214 4 1 49
40 100 87 51 47 143 130 204 185 60 55 130 118 155 141 25 23 501 456 1057
963 l1013 921 182 1 c115 0 196 5 217 12 54 19 75 56 79 143 l4 74 1353 0
1353 0 3 -79 c4 -68 8 -83 28 -105 39 -42 80 -48 281 -44 273 5 270 2 270 302
l0 195 63 113 c35 62 305 555 602 1096 l539 982 193 0 193 0 37 34 c36 32 37
35 41 119 l4 86 52 15 c28 8 335 94 681 190 347 96 952 265 1345 375 l715 200
20 -24 c36 -42 54 -45 270 -45 l207 0 34 34 34 34 0 211 c0 141 -4 219 -12
236 -23 50 -48 55 -279 55 l-211 0 -34 -34z m425 -80 c8 -9 11 -65 9 -177 l-3
-164 -177 -3 -178 -2 0 173 c0 96 3 177 7 180 3 4 79 7 168 7 126 0 165 -3
174 -14z m-3371 -948 c18 -18 17 -332 -2 -347 -9 -8 -65 -11 -177 -9 l-164 3
-3 174 c-2 133 1 176 10 183 21 13 322 10 336 -4z m-4950 -2855 l-3 -178 -175
0 -175 0 -3 178 -2 177 180 0 180 0 -2 -177z m3290 0 l-3 -178 -175 0 -175 0
-3 178 -2 177 180 0 180 0 -2 -177z m-10070 -2590 l-3 -178 -175 0 -175 0 -3
178 -2 177 180 0 180 0 -2 -177z m3770 -215 l2 -178 -180 0 -180 0 0 173 c0
96 3 177 7 181 4 3 84 5 177 4 l171 -3 3 -177z"/>
<path d="M14747 9253 c-13 -12 -7 -41 9 -47 9 -3 71 -6 140 -6 l124 0 2 -267
3 -268 25 0 25 0 3 275 c1 151 0 285 -3 298 -5 22 -8 22 -164 22 -87 0 -161
-3 -164 -7z"/>
<path d="M9834 6555 c-16 -40 0 -45 141 -45 l135 0 2 -272 3 -273 28 -3 27 -3
0 293 c0 215 -3 297 -12 306 -8 8 -59 12 -165 12 -127 0 -155 -3 -159 -15z"/>
<path d="M13305 5098 c-3 -13 -4 -117 -3 -233 l3 -210 100 0 100 0 0 25 c0 24
-3 25 -72 28 l-73 3 -2 202 c-3 200 -3 202 -25 205 -16 2 -24 -3 -28 -20z"/>
<path d="M3056 4034 c-14 -36 11 -44 145 -44 l129 0 2 -272 3 -273 28 -3 27
-3 0 299 c0 264 -2 301 -16 306 -9 3 -82 6 -164 6 -127 0 -149 -2 -154 -16z"/>
<path d="M6970 2105 l0 -235 105 0 105 0 0 30 0 30 -75 0 -75 0 0 205 0 205
-30 0 -30 0 0 -235z"/>
</g>
</svg>
