<svg width="21" height="18" viewBox="0 0 21 18" fill="none" xmlns="http://www.w3.org/2000/svg">
<path fill-rule="evenodd" clip-rule="evenodd" d="M3 3H10.5C11.3284 3 12 2.32842 12 1.5C12 0.67158 11.3284 0 10.5 0H3C1.34315 0 0 1.34314 0 3V15C0 16.6569 1.34315 18 3 18H15C16.6569 18 18 16.6569 18 15V12C18 11.1716 17.3285 10.5 16.5 10.5C15.6716 10.5 15 11.1716 15 12V15H3V3ZM19.8107 0.439335C19.2249 -0.146445 18.2751 -0.146445 17.6894 0.439335L9.75 8.37868L8.56067 7.18933C7.97487 6.60356 7.02513 6.60356 6.43934 7.18933C5.85356 7.77513 5.85356 8.72487 6.43934 9.31067L8.68934 11.5607C8.97065 11.842 9.35217 12 9.75 12C10.1478 12 10.5294 11.842 10.8107 11.5607L19.8107 2.56066C20.3964 1.97487 20.3964 1.02513 19.8107 0.439335Z" fill="#001F48"/>
</svg>
